# xmcd
#
# Track frame offsets:
# 150
# 20307
# 35862
# 55785
# 78970
# 99330
# 120117
# 139345
# 160407
#
# Disc length: 2395 seconds
#
#
# Revision: 2
# Processed by: cddbd v1.4PL0 Copyright (c) Steve Scherf et al.
# Submitted via: FreeRIP 2.52 
#
DISCID=69095909
DTITLE=Fernando Villalona - HISTORIA de una Vida - CD1
DYEAR=1997
DGENRE=Merengue
TTITLE0=Me Muero Por Ti
TTITLE1=Delirante Amor
TTITLE2=Penelope
TTITLE3=Retorno
TTITLE4=Solo Tu
TTITLE5=Por El Amor De Una Mujer
TTITLE6=Necesito Tenerla
TTITLE7=Corazon Salvaje
TTITLE8=Porque Eres Linda
EXTD=25 ANOS DE EXITOS.
EXTT0=
EXTT1=
EXTT2=
EXTT3=
EXTT4=
EXTT5=
EXTT6=
EXTT7=
EXTT8=
PLAYORDER=
